PathFileType	4	(X/Y/Z)	s06c0302.trc
DataRate	CameraRate	NumFrames	NumMarkers	Units	OrigDataRate	OrigDataStartFrame	OrigNumFrames
200	200	4	48	mm	200	750	2000
Frame#	Time	racr			lacr			c7			jug			rlel			rdr			llel			ldr			s2			lic			ric			lasi			rasi			rpsi			lpsi			rgt			lgt			rth1			rth2			rth3			rth4			rlfc			rmfc			rsh1			rsh2			rsh3			rsh4			rlmal			rcal			rtoe			rmt5			lth1			lth2			lth4			lth3			llfc			lmfc			llmal			lcal			lmt5			lsh1			lsh2			lsh3			lsh4			ltoe			SBIKE			LBIKE			RBIKE			
		X1	Y1	Z1	X2	Y2	Z2	X3	Y3	Z3	X4	Y4	Z4	X5	Y5	Z5	X6	Y6	Z6	X7	Y7	Z7	X8	Y8	Z8	X9	Y9	Z9	X10	Y10	Z10	X11	Y11	Z11	X12	Y12	Z12	X13	Y13	Z13	X14	Y14	Z14	X15	Y15	Z15	X16	Y16	Z16	X17	Y17	Z17	X18	Y18	Z18	X19	Y19	Z19	X20	Y20	Z20	X21	Y21	Z21	X22	Y22	Z22	X23	Y23	Z23	X24	Y24	Z24	X25	Y25	Z25	X26	Y26	Z26	X27	Y27	Z27	X28	Y28	Z28	X29	Y29	Z29	X30	Y30	Z30	X31	Y31	Z31	X32	Y32	Z32	X33	Y33	Z33	X34	Y34	Z34	X35	Y35	Z35	X36	Y36	Z36	X37	Y37	Z37	X38	Y38	Z38	X39	Y39	Z39	X40	Y40	Z40	X41	Y41	Z41	X42	Y42	Z42	X43	Y43	Z43	X44	Y44	Z44	X45	Y45	Z45	X46	Y46	Z46	X47	Y47	Z47	X48	Y48	Z48	
750	3.7500	717.036304	1247.306205	-87.194142	748.024017	1174.033714	-393.680879	761.754930	1281.026838	-246.789360	690.846645	1129.618245	-222.506495	580.827309	1067.672812	62.994065	719.870061	920.299015	-36.696589	536.086569	1037.088910	-504.182399	703.507987	932.599617	-412.356815	183.114652	1234.275483	-232.195498	317.795328	1150.293639	-402.769212	320.617866	1161.193189	-66.986385	318.021009	1149.887571	-402.859014	344.594004	1114.027734	-103.622357	222.146427	1253.846577	-192.915742	220.114086	1253.365342	-255.522107	286.801265	1083.457505	-32.325849	284.145376	1099.827771	-424.451068	355.695258	974.436576	-34.699913	413.524736	906.046835	-46.211551	430.616596	821.282402	-47.972924	440.323366	922.401431	-68.554531	434.097132	718.320374	-64.170282	409.381094	699.048379	-172.205561	339.593816	640.778311	-35.920247	280.828192	580.073875	-55.668248	197.477211	550.063430	-54.873493	292.476305	565.339017	-91.951995	122.723653	519.816028	-57.155131	73.372194	560.254740	-104.458245	144.468904	291.936529	-94.541173	94.929489	380.251279	-29.378789	311.695762	978.550952	-444.443907	366.787091	911.423668	-439.511610	399.539338	926.261507	-429.294127	380.506636	822.944998	-433.132450	402.156424	704.889122	-410.058375	416.652368	691.892006	-297.088873	290.327901	349.953541	-374.528160	217.173266	341.703025	-325.188955	391.125262	252.086627	-402.695532	371.037497	598.945403	-424.042606	368.101648	514.916252	-401.005301	322.259898	439.815272	-391.428484	396.776410	512.366062	-373.563686	476.229446	232.544529	-345.587831	-203.354121	865.732642	-211.552520	-50.735056	79.727676	-410.417280	-50.365998	79.893763	-13.374542	
751	3.7550	715.700768	1247.687538	-85.700232	750.104476	1172.077110	-390.660113	762.350458	1281.785491	-244.565621	692.223213	1129.814427	-221.272840	579.708610	1066.640372	63.056821	719.895493	920.067225	-37.065337	541.028993	1038.171768	-505.692498	704.025409	932.068915	-412.685856	182.415985	1230.272506	-231.960923	318.947136	1145.964677	-403.114368	320.661220	1160.993311	-67.457719	319.277807	1145.592272	-403.278811	345.720146	1114.073468	-103.614569	222.146804	1251.457765	-194.795677	220.072642	1250.261095	-256.467174	287.041619	1081.951465	-32.283736	284.333869	1094.101780	-424.371119	359.488707	976.209970	-33.801000	418.917531	909.428418	-45.010109	438.357509	825.275445	-46.477436	445.587282	926.483440	-67.079272	443.657586	723.332205	-63.315878	420.386149	705.734899	-171.655650	348.294402	646.842685	-35.796413	288.541421	587.164180	-55.443586	204.579089	558.512572	-54.809300	299.879304	572.273185	-91.793989	129.002215	529.465986	-57.185536	79.538119	570.258842	-104.588574	149.353362	301.539521	-94.996243	100.403617	390.250723	-29.621707	310.980005	971.321154	-443.803937	364.486530	903.000938	-438.548586	397.560220	917.120694	-428.289734	376.046093	814.284275	-431.614800	396.197645	696.601446	-409.174785	408.308564	683.218485	-295.712923	287.752499	341.059037	-374.429838	214.747196	334.128298	-325.208781	387.116432	241.220669	-402.549606	365.858264	590.612900	-423.281321	363.835450	506.470615	-400.438857	318.754295	430.868156	-391.108749	392.437906	503.771980	-372.316131	471.673714	219.996483	-345.307854	-203.182705	865.746556	-211.827892	-50.757706	79.581206	-410.366505	-50.321505	79.955246	-13.424842	
752	3.7600	714.409327	1248.016730	-84.076313	752.018389	1171.255673	-388.329856	762.750104	1282.759552	-242.334337	693.340609	1130.249945	-220.151150	578.678667	1065.475285	63.135852	719.908000	919.893016	-37.359842	542.707787	1038.337389	-506.700161	704.508904	931.053839	-412.356945	181.989499	1226.860835	-231.630863	320.370321	1141.729592	-403.578765	320.637437	1161.151462	-68.060999	320.746919	1141.324149	-403.703024	346.558802	1114.129243	-103.400366	222.607663	1249.171758	-197.582782	220.229469	1247.307201	-258.205355	287.127835	1081.454807	-31.824607	284.411118	1088.344477	-424.177661	363.200858	978.851110	-33.068630	424.443230	913.426264	-44.581143	445.711705	829.802663	-45.389135	450.493202	931.006571	-64.830285	452.894443	728.207547	-62.498725	428.783215	711.326305	-171.167496	357.240991	652.772979	-35.288381	296.553840	594.380804	-55.173450	212.107381	566.849892	-54.643822	307.484137	579.293428	-91.766100	135.768424	539.024178	-57.254771	86.558511	579.955359	-104.512336	154.971472	311.148796	-95.376867	106.472867	399.805914	-29.916243	309.734759	964.211329	-443.560885	361.727851	894.796753	-437.743262	395.071675	908.216064	-427.508844	370.946252	805.637287	-430.330318	390.225829	688.460167	-408.389444	399.962192	674.615438	-294.584358	284.372507	332.322877	-374.272736	211.659920	326.834692	-325.142684	382.362643	230.767289	-402.338339	360.366186	582.230842	-422.531510	359.134451	498.063505	-399.850276	314.696415	422.046600	-390.880712	387.649931	495.602905	-371.688863	466.540066	207.695615	-345.020243	-203.034573	865.725398	-212.053125	-50.675608	79.456032	-410.367112	-50.252786	79.971386	-13.449903	
753	3.7650	713.231282	1248.345319	-82.391862	750.995473	1172.466798	-388.754106	762.894633	1283.971759	-240.224042	691.299076	1132.182967	-219.812326	577.635969	1064.517283	63.292013	719.992227	919.773279	-37.657509	544.491146	1038.897805	-507.538396	705.444011	930.170506	-411.941346	182.143144	1222.894063	-233.147692	322.098297	1137.448666	-404.001624	320.384429	1161.331595	-69.046124	322.433572	1137.102170	-404.115228	346.425577	1113.961279	-103.758762	221.819247	1246.972951	-199.540206	220.320999	1244.569301	-260.285529	287.220434	1081.947529	-31.377403	284.572239	1082.749252	-424.178663	366.467293	982.420167	-32.049195	429.350915	918.358083	-41.937751	452.591497	834.674469	-43.788092	455.366943	936.577383	-62.448511	462.003714	733.221661	-61.594024	438.742453	717.260451	-170.431487	366.292359	659.183657	-34.740742	304.909714	601.651753	-54.813203	220.021209	575.250832	-54.422507	315.579963	586.504763	-91.517853	143.083475	548.168256	-57.173618	93.877573	589.394175	-104.634625	161.353281	320.346623	-95.803407	113.120990	409.130773	-30.242288	307.982298	957.341247	-443.437781	358.543529	886.938822	-437.099315	392.144494	899.762637	-426.892424	366.005545	797.572953	-429.247928	383.841017	680.591806	-407.828539	391.452964	666.315991	-293.610218	280.213793	323.975540	-374.235498	207.916794	319.886177	-325.205300	377.029056	220.586707	-402.073042	354.717691	574.119514	-422.124683	354.011029	489.815813	-399.396771	310.173812	413.443177	-390.617388	382.363311	487.540267	-370.969666	460.654383	195.865988	-344.718848	-202.913941	865.714790	-212.207470	-50.689330	79.366368	-410.309931	-50.201574	79.984324	-13.486670	
